<?xml version="1.0" encoding="UTF-8" standalone="no"?>
<!DOCTYPE svg PUBLIC "-//W3C//DTD SVG 1.1//EN" "http://www.w3.org/Graphics/SVG/1.1/DTD/svg11.dtd">
<!-- Created with Vectornator (http://vectornator.io/) -->
<svg height="100%" stroke-miterlimit="10" style="fill-rule:nonzero;clip-rule:evenodd;stroke-linecap:round;stroke-linejoin:round;" version="1.1" viewBox="0 0 423.776 171.497" width="100%" xml:space="preserve" xmlns="http://www.w3.org/2000/svg" xmlns:xlink="http://www.w3.org/1999/xlink">
<defs/>
<clipPath id="ArtboardFrame">
<rect height="171.497" width="423.776" x="0" y="0"/>
</clipPath>
<g clip-path="url(#ArtboardFrame)" id="Layer-2">
<g opacity="1">
<path d="M20.9801 0.0279265L0 0.0279265L0 171.497L21.2598 171.497L21.2598 35.2153L117.209 171.497L141.297 171.497L20.9801 0.0279265Z" fill="#000000" fill-rule="nonzero" opacity="1" stroke="none"/>
<path d="M402.796 171.469L423.776 171.469L423.776 1.42109e-14L402.517 1.42109e-14L402.517 136.281L306.568 0L282.48 0L402.796 171.469Z" fill="#000000" fill-rule="nonzero" opacity="1" stroke="none"/>
<path d="M260.461 0.0279265L260.461 73.4746L163.393 73.4746L163.393 0.0279265L141.294 0.0279265L141.294 171.497L163.393 171.497L163.393 93.3024L260.461 93.3024L260.461 171.497L282.56 171.497L282.56 0.0279265L260.461 0.0279265Z" fill="#000000" fill-rule="nonzero" opacity="1" stroke="none"/>
</g>
<path d="M448.544 215.753L471.416 215.753L448.096 183.935C454.15 171.298 457.289 155.728 457.289 136.999L436.436 136.999C436.436 147.153 435.315 156.18 433.297 163.852L396.747 113.756L427.691 113.756L427.691 93.8983L391.59 93.8983C388.451 93.8983 385.536 94.124 382.621 94.3496L359.973 63.4347L442.939 63.4347L442.939 44.2539L336.429 44.2539L336.429 63.6603L362.44 98.8628C338.223 108.115 324.769 129.101 324.769 155.954C324.769 193.638 350.78 219.363 389.572 219.363C409.08 219.363 425.449 212.819 437.109 200.183L448.544 215.753ZM346.744 156.18C346.744 136.773 356.161 121.428 374.997 116.013L424.552 183.258C416.704 194.09 404.819 199.731 390.02 199.731C363.337 199.731 346.744 182.356 346.744 156.18Z" fill="#000000" fill-rule="nonzero" opacity="0" stroke="none"/>
<path d="M308.948 44.2774L354.854 106.496C336.605 116.266 324.948 136.236 324.948 159.902C324.948 192.957 351.738 219.746 384.792 219.746C401.954 219.746 416.437 214.455 427.417 204.809L435.479 215.746L458.636 215.746L439.667 189.934C443.352 183.494 446.097 176.105 447.792 167.809C447.792 167.809 448.022 166.638 448.229 165.527C448.566 163.719 448.886 161.721 449.198 159.559C450.095 153.344 450.636 147.076 450.636 141.09L430.636 141.09C430.636 146.008 430.188 151.376 429.417 156.715C429.145 158.597 428.862 160.32 428.573 161.871C428.474 162.405 428.198 163.809 428.198 163.809C427.646 166.512 426.924 169.028 426.104 171.434L388.386 120.059C396.973 120.059 416.176 120.059 422.698 120.059L422.698 100.059C414.774 100.059 381.923 100.059 381.011 100.059C378.631 100.059 376.318 100.255 374.042 100.527L346.823 63.4649L429.948 63.4649L429.948 44.2774L308.948 44.2774ZM366.979 122.902L415.479 188.621C407.934 195.904 397.653 199.746 384.792 199.746C362.783 199.746 344.948 181.911 344.948 159.902C344.948 142.424 353.625 128.59 366.979 122.902Z" fill="#000000" fill-rule="nonzero" opacity="0" stroke="none"/>
</g>
</svg>
